<svg width="82" height="24" viewBox="0 0 82 24" fill="none" xmlns="http://www.w3.org/2000/svg">
<path fill-rule="evenodd" clip-rule="evenodd" d="M20.4768 18.9692C20.2463 19.8213 19.9173 20.264 18.856 20.509C16.5054 20.9576 14.1548 21.0731 11.804 21.073C9.45342 21.0731 7.10275 20.9576 4.75209 20.509C3.69101 20.264 3.36186 19.8213 3.13121 18.9693C2.66625 16.5832 2.54728 14.1968 2.54778 11.8106C2.54715 9.4244 2.66625 7.03818 3.13133 4.65196C3.36186 3.79981 3.69101 3.35709 4.75221 3.11211C7.10288 2.66361 9.45342 2.54816 11.8041 2.54816C14.1549 2.54803 16.5055 2.66361 18.8561 3.11211C19.9174 3.35709 20.2463 3.80006 20.477 4.65196C20.9422 7.03818 21.061 9.4244 21.0605 11.8106C21.0611 14.1968 20.9422 16.5832 20.4768 18.9692ZM23.6082 11.7999H23.6078C23.6067 9.26837 23.3818 6.73654 22.9269 4.20497C22.6411 2.5317 21.324 1.07288 19.5076 0.700514C16.9454 0.233798 14.3831 0.00238697 11.8209 0.000376891V0C11.8151 0 11.8096 0.00012563 11.804 0.00012563C11.7984 0.00012563 11.7929 0 11.7874 0V0.000376891C9.22527 0.00238697 6.6628 0.233672 4.10057 0.700514C2.28421 1.07288 0.967101 2.53183 0.681292 4.20497C0.226386 6.73654 0.00150756 9.26837 0.000376891 11.7999H0C0 11.8035 0.00012563 11.8071 0.00012563 11.8106C0.00012563 11.8141 0 11.8179 0 11.8213H0.000376891C0.00150756 14.3529 0.226386 16.8847 0.681292 19.4163C0.967101 21.0893 2.28421 22.5484 4.10057 22.9209C6.6628 23.3873 9.22502 23.6189 11.7874 23.621V23.6211C11.7929 23.6211 11.7984 23.6211 11.804 23.6211C11.8097 23.621 11.8153 23.6212 11.8209 23.6212V23.6206C14.3831 23.6189 16.9454 23.3874 19.5076 22.9207C21.324 22.5481 22.6412 21.0892 22.9269 19.4161C23.3818 16.8843 23.6067 14.3527 23.6078 11.8212H23.6082C23.6082 11.8175 23.608 11.814 23.608 11.8105C23.6082 11.807 23.6082 11.8035 23.6082 11.7999Z" fill="black"/>
<path fill-rule="evenodd" clip-rule="evenodd" d="M17.8037 15.7514L13.9024 11.8211L15.6523 10.058C15.7846 9.9625 15.9008 9.8468 15.9945 9.71313L17.4528 8.24401C17.8198 7.89224 18.111 7.53797 18.111 7.02942C18.111 6.22764 17.4611 5.57788 16.6596 5.57788C16.2034 5.57788 15.8318 5.8059 15.525 6.0887L15.5162 6.10264L13.6696 7.96272L13.6628 7.95594L11.8644 9.7679L10.0661 7.95606L10.0591 7.96285L8.21295 6.10277L8.20391 6.09448C7.84511 5.75389 7.52563 5.57788 7.06934 5.57788C6.26782 5.57788 5.61806 6.22764 5.61806 7.02942C5.61806 7.53797 5.93817 7.88056 6.27611 8.24401L7.73443 9.71313C7.82815 9.84667 7.94436 9.9625 8.07677 10.058L9.82655 11.8211L5.92535 15.7514L5.92259 15.7432C5.72108 15.9925 5.61731 16.3327 5.61731 16.6782C5.61731 17.4797 6.26707 18.1297 7.06871 18.1297C7.58091 18.1295 7.95453 17.8406 8.28833 17.4631L9.68521 16.0558C9.86788 15.942 10.025 15.7909 10.1416 15.61L11.8644 13.8743L13.5873 15.61C13.704 15.791 13.861 15.942 14.0437 16.0561L15.4407 17.4633C15.7628 17.7827 16.1481 18.1298 16.6603 18.1298C17.4618 18.1296 18.1117 17.48 18.1117 16.6783C18.1117 16.3328 18.0136 16.0042 17.812 15.7551L17.8037 15.7514ZM81.1893 17.2718C81.1711 17.1297 81.1437 17.0153 81.1072 16.9276C81.0709 16.8404 81.0253 16.7767 80.9705 16.7365C80.9159 16.6964 80.8562 16.6763 80.7903 16.6763H74.7718V12.6879H79.971C80.0367 12.6879 80.0967 12.6698 80.1513 12.6333C80.2061 12.597 80.2514 12.5369 80.288 12.453C80.3246 12.3692 80.3518 12.2581 80.3699 12.1196C80.3881 11.9813 80.3974 11.8065 80.3974 11.5951C80.3974 11.3912 80.3883 11.2182 80.3699 11.0761C80.3518 10.9339 80.3243 10.8212 80.288 10.7374C80.2517 10.6536 80.2058 10.5917 80.1513 10.5515C80.0967 10.5114 80.0367 10.4915 79.971 10.4915H74.7718V7.03871H80.7467C80.8124 7.03871 80.8703 7.01874 80.9218 6.97879C80.9726 6.93871 81.016 6.87489 81.0526 6.78745C81.0891 6.70001 81.1164 6.58531 81.1345 6.44323C81.1527 6.30114 81.162 6.12827 81.162 5.92425C81.162 5.70565 81.1528 5.52537 81.1345 5.38328C81.1164 5.24107 81.0891 5.12486 81.0526 5.03353C81.0163 4.94257 80.9726 4.87888 80.9218 4.84245C80.8703 4.80589 80.8124 4.78767 80.7467 4.78767H72.7614C72.5213 4.78767 72.3188 4.8589 72.1548 5.00099C71.9909 5.14295 71.909 5.37436 71.909 5.69472V18.0204C71.909 18.341 71.9909 18.5722 72.1548 18.7143C72.3188 18.8564 72.5212 18.9273 72.7614 18.9273H80.7903C80.8561 18.9273 80.9159 18.9075 80.9705 18.8672C81.0253 18.8273 81.0709 18.7633 81.1072 18.6758C81.1438 18.5886 81.1711 18.4738 81.1893 18.3317C81.2076 18.1895 81.2165 18.0131 81.2165 17.8017C81.2167 17.5906 81.2076 17.4139 81.1893 17.2718ZM67.2551 5.87965C67.1594 5.78053 66.9915 5.66382 66.7507 5.52939C66.5098 5.39484 66.2072 5.26934 65.8427 5.15275C65.4783 5.03592 65.0521 4.93667 64.5639 4.85539C64.0752 4.7741 63.5343 4.7334 62.9395 4.7334C61.8565 4.7334 60.8751 4.89961 59.9939 5.23215C59.1129 5.56494 58.3604 6.04422 57.7384 6.67049C57.1155 7.29676 56.634 8.05757 56.2943 8.95281C55.9544 9.84805 55.7846 10.8582 55.7846 11.9836C55.7847 13.0734 55.9441 14.0481 56.2624 14.9079C56.5813 15.768 57.0406 16.4969 57.6427 17.0948C58.244 17.6929 58.9781 18.1494 59.8449 18.4641C60.7118 18.7791 61.694 18.9366 62.7912 18.9366C63.1661 18.9366 63.5395 18.9189 63.9112 18.8835C64.2827 18.8481 64.6504 18.7949 65.0149 18.7243C65.3795 18.6537 65.7315 18.5688 66.0712 18.4696C66.4108 18.3704 66.6958 18.275 66.9257 18.1829C67.1554 18.091 67.3076 17.9654 67.3825 17.8062C67.4566 17.6468 67.4937 17.4611 67.4937 17.2489V11.5966C67.4937 11.4549 67.4755 11.3292 67.4403 11.2197C67.4053 11.1099 67.3539 11.0162 67.2867 10.9384C67.2192 10.8605 67.1417 10.8022 67.0531 10.7631C66.9645 10.7242 66.8637 10.7049 66.7506 10.7049H62.1117C62.0479 10.7049 61.9912 10.7245 61.9417 10.7631C61.8923 10.8022 61.8493 10.8624 61.8141 10.9438C61.779 11.0251 61.7523 11.1331 61.7347 11.2675C61.7172 11.4018 61.7079 11.5683 61.7079 11.7663C61.708 12.1483 61.7432 12.4192 61.814 12.5784C61.8849 12.7375 61.9838 12.8172 62.1116 12.8172H64.7121V16.1871C64.4506 16.3288 64.1674 16.4351 63.8627 16.5057C63.5588 16.5763 63.251 16.6117 62.9392 16.6117C62.3028 16.6117 61.7202 16.5092 61.1931 16.3038C60.6661 16.0987 60.2149 15.7943 59.8394 15.391C59.4645 14.9876 59.1723 14.4871 58.964 13.8888C58.7552 13.291 58.6505 12.5991 58.6505 11.8137C58.6505 11.0988 58.7532 10.4459 58.9581 9.85509C59.1638 9.26413 59.4574 8.75821 59.8394 8.33697C60.2222 7.91599 60.6815 7.59035 61.2197 7.36033C61.7575 7.13042 62.3587 7.01535 63.0245 7.01535C63.6468 7.01535 64.1939 7.07904 64.6645 7.20643C65.1351 7.33382 65.5399 7.47189 65.8795 7.62038C66.2193 7.76913 66.4919 7.90707 66.6969 8.03433C66.9026 8.16172 67.051 8.22542 67.1433 8.22542C67.2066 8.22542 67.2613 8.20783 67.3074 8.17253C67.3537 8.1371 67.3926 8.07529 67.4245 7.98659C67.4564 7.89827 67.4811 7.77968 67.4986 7.63106C67.5163 7.48231 67.5254 7.30568 67.5254 7.10027C67.5254 6.7465 67.504 6.47916 67.4615 6.29875C67.4197 6.11835 67.3507 5.9789 67.2551 5.87965ZM44.5 13.4956L46.4842 7.53055H46.4952L48.4802 13.4956H44.5ZM48.5992 5.38303C48.5557 5.24584 48.5036 5.1373 48.4419 5.05778C48.3806 4.97813 48.2792 4.91845 48.1386 4.87888C47.9973 4.83905 47.8 4.8138 47.547 4.80287C47.2939 4.79194 46.9542 4.78667 46.5278 4.78667C46.1588 4.78654 45.8627 4.79207 45.6382 4.80287C45.4142 4.8138 45.2386 4.83905 45.1123 4.87888C44.9862 4.91858 44.8937 4.97649 44.8358 5.05225C44.7779 5.12813 44.7271 5.22763 44.6842 5.35049L40.3564 17.8013C40.2698 18.0546 40.2156 18.257 40.1935 18.4087C40.1721 18.5606 40.1975 18.6783 40.2696 18.7613C40.342 18.8444 40.472 18.8968 40.6602 18.9184C40.8484 18.9402 41.1087 18.9511 41.4411 18.9511C41.7516 18.951 42.0035 18.9437 42.1947 18.9294C42.3861 18.9148 42.5345 18.8876 42.6393 18.8479C42.744 18.8082 42.8202 18.7541 42.867 18.6853C42.9145 18.6167 42.9522 18.5317 42.9809 18.4304L43.8706 15.6865H49.1413L50.0849 18.5064C50.1136 18.6005 50.1499 18.6765 50.1935 18.7341C50.2373 18.792 50.3128 18.8371 50.4214 18.8697C50.5296 18.9021 50.6869 18.924 50.8933 18.9346C51.099 18.9456 51.3866 18.9511 51.7556 18.9511C52.1096 18.951 52.3882 18.9419 52.5906 18.924C52.793 18.9057 52.9335 18.8589 53.0136 18.7829C53.0931 18.7071 53.1222 18.593 53.1001 18.4412C53.0788 18.2894 53.0241 18.0832 52.9374 17.8229L48.5992 5.38303ZM35.4011 10.3004C35.2988 10.6103 35.1498 10.876 34.9526 11.0981C34.7561 11.3204 34.5031 11.4933 34.1938 11.6172C33.884 11.7409 33.4994 11.8027 33.0406 11.8027H31.1025V7.0058H32.9748C33.2737 7.0058 33.5631 7.02602 33.8436 7.0661C34.1242 7.10618 34.3915 7.20266 34.6467 7.35555C34.9018 7.50844 35.1165 7.74538 35.2917 8.06574C35.4668 8.38635 35.554 8.79452 35.554 9.28963C35.5541 9.65396 35.5033 9.9909 35.4011 10.3004ZM37.6191 6.31207C37.3132 5.96621 36.9436 5.68015 36.51 5.45439C36.0767 5.22863 35.6483 5.07386 35.2261 4.98981C34.8038 4.90627 34.4411 4.85162 34.1393 4.82599C33.8365 4.80048 33.5178 4.78755 33.1831 4.78755H29.2016C28.9102 4.78755 28.6751 4.87335 28.497 5.04446C28.3181 5.21544 28.2287 5.47248 28.2287 5.81482V18.5339C28.2287 18.6066 28.2508 18.6722 28.2946 18.7305C28.3382 18.7888 28.4149 18.8361 28.5242 18.8726C28.6336 18.9091 28.7806 18.938 28.9668 18.96C29.1522 18.9817 29.3834 18.9928 29.6604 18.9928C29.9443 18.9927 30.1779 18.9817 30.3602 18.96C30.5417 18.938 30.6874 18.9091 30.7969 18.8726C30.9063 18.8363 30.9843 18.7888 31.0317 18.7305C31.0793 18.6722 31.1026 18.6067 31.1026 18.5339V14.021H32.9313C33.8639 14.021 34.6741 13.9116 35.3628 13.6931C36.0512 13.4744 36.6318 13.1559 37.1055 12.7369C37.5794 12.3182 37.9399 11.8025 38.1871 11.1907C38.4352 10.579 38.5588 9.87582 38.5588 9.08196C38.5588 8.50658 38.4788 7.98747 38.3186 7.52478C38.1579 7.06246 37.925 6.65805 37.6191 6.31207Z" fill="black"/>
</svg>
